<svg xmlns="http://www.w3.org/2000/svg" viewBox="0 0 380.98 97.45"><title>Asset 1</title><g id="Layer_2" data-name="Layer 2"><g id="svg2"><g id="layer1"><g id="g3846"><g id="g3863"><path id="path3064" d="M111.12.42C88.91.58,70.75,25.26,70.75,46.79c0,22.65,13.31,50.28,40.37,50.2s41.1-29.84,41.1-50.2C152.21,24.3,133.32.26,111.12.42Zm0,.84c18.58,0,23.6,20.53,23.6,45.52,0,33-6,49.25-23.6,49.22S87.86,82.66,87.86,46.79C87.86,24.32,92.53,1.27,111.12,1.27Z"/><path id="path3060" d="M159.54,47.4C159.45,22.9,179,1.21,195.64.13c6-.42,13.7,2.32,18.2,4.28C217.11,5.83,223.77,3.77,225,0h.65V33.36H225C225,31.94,218.78,1,195.64,1,178.55,1,176.9,31,176.9,47.4s.5,48.8,20.44,48.8C207,96.2,214.15,92,216,83.42v-26H207.9V56.31h31.43v1.11h-7.75v38h-.63A7.51,7.51,0,0,0,223.29,90c-8.17,0-15.88,7.12-25.28,7-24.85-.23-38.37-25.11-38.47-49.61Z"/><path id="path3058" d="M9.79,3.71H0V2.61H34.28v1.1h-8.6l24.5,66.53c7.66-23.58,13.59-41,21.58-66.53H63.25V2.61h18.1v1.1H73.11L43.34,96.53Z"/><path id="path3054" d="M244.13,73.8,244,3.6h-9.32V2.55H269V3.6h-9.31l.21,77c2.06,8.81,5.73,15.5,18.24,15.6s21-7.41,24.19-17.66V3.6H291.66v-1h87.22l.18,33.7h-.84c-1.62-21.76-10-30-24.7-32.38-5.05-.83-10.35-.21-17.05-.27v43c5.83.45,12.05.08,16.24-3.52,3.81-3.27,4.89-10.83,5.17-13.9h.74V66.67h-.8c-.23,0-.54-9.4-5.1-13.86s-10.45-5.59-16.24-4.52V94.24c8.17,0,14.69.69,20.34-.86C374,88.67,380.07,74.16,380,59.61h1V95.33H312.57V94.24h7.74V3.6H303.59V78.51c-1.89,7.17-8.82,19-26.56,18.94-16.5-.08-32.86-7.51-32.9-23.65Z"/></g></g></g></g></g></svg>